# xmcd
#
# Track frame offsets:
# 150
# 19304
# 38499
# 55837
# 76903
# 107123
# 123534
# 149030
# 168194
# 198316
# 217083
# 244418
# 263910
# 276419
# 304693
# 313840
# 342841
#
# Disc length: 4776 seconds
#
#
# Revision: 2
# Processed by: cddbd v1.5.2PL0 Copyright (c) Steve Scherf et al.
# Submitted via: FreeRIP 2.52 
#
DISCID=0312a611
DTITLE=Ultimate Chillout - CD 01
DYEAR=2004
DGENRE=Meditative
TTITLE0=Afro Celt Sound System-Inion (Daughter)
TTITLE1=Sacred Spirit-The Cradle Song (Dawa)
TTITLE2=Nusrat Fateh Ali Khan-Sea Of Vapours
TTITLE3=Sinead O'Connor-Three Babies
TTITLE4=Micheal O'Suilleabhain-Ah, Sweet Dancer
TTITLE5=Altan-Blackwaterside
TTITLE6=Alexia Wilson and Paul Brennan-The Crossing
TTITLE7=The Mediaeval Baebes-Beatrice
TTITLE8=The Don Carmel Celtic Band-The Spirit Of The Mist
TTITLE9=Djivan Gaspasyan and Michael Brook-To The River
TTITLE10=New World Orchestra and Madrugada-Panorama
TTITLE11=Brian Eno-UnderStars
TTITLE12=David Sylvian-Where The Railroad Meets The Sea
TTITLE13=D*Note-Lost And Found
TTITLE14=Craig Armstrong-My Father
TTITLE15=Adiemus-Adiemus
TTITLE16=NA
EXTD=EMI
EXTT0=
EXTT1=
EXTT2=
EXTT3=
EXTT4=
EXTT5=
EXTT6=
EXTT7=
EXTT8=
EXTT9=
EXTT10=
EXTT11=
EXTT12=
EXTT13=
EXTT14=
EXTT15=
EXTT16=
PLAYORDER=
